<?xml version="1.0" encoding="UTF-8" standalone="no"?><svg xmlns:inkscape="http://www.inkscape.org/namespaces/inkscape" xmlns:sodipodi="http://sodipodi.sourceforge.net/DTD/sodipodi-0.dtd" xmlns="http://www.w3.org/2000/svg" xmlns:svg="http://www.w3.org/2000/svg" viewBox="0 0 1174 258.82" version="1.1" id="svg187" sodipodi:docname="blob_heading.svg" inkscape:version="1.1.1 (3bf5ae0d25, 2021-09-20)" width="1024px" height="225.751011px" preserveAspectRatio="none" style="width: 1024px; height: 225.751011px;">
  <sodipodi:namedview id="namedview189" pagecolor="#ffffff" bordercolor="#666666" borderopacity="1.0" inkscape:pageshadow="2" inkscape:pageopacity="0.0" inkscape:pagecheckerboard="0" showgrid="false" inkscape:zoom="1.0979557" inkscape:cx="566.05198" inkscape:cy="129.33126" inkscape:window-width="1920" inkscape:window-height="1131" inkscape:window-x="1920" inkscape:window-y="32" inkscape:window-maximized="1" inkscape:current-layer="Layer_1"/>
  <defs id="defs4">
    <style id="style2">.cls-1{fill:#0071bc;}.cls-2{fill:#f7931e;}.cls-3{fill:#4d4d4d;}</style>
  </defs>
  <g id="Layer_1" data-name="Layer 1">
    <ellipse class="cls-1" cx="116.56" cy="81.96" rx="51.78" ry="20.82" transform="translate(-89.9 57.74) rotate(-36.23)" id="ellipse6" style="fill:#f7931e"/>
    <ellipse class="cls-2" cx="134.02" cy="234.56" rx="22.85" ry="24.26" id="ellipse8" style="fill:#0071bc"/>
    <ellipse class="cls-1" cx="322.28" cy="215.68" rx="56.58" ry="19.45" transform="translate(-127.77 225.46) rotate(-39.23)" id="ellipse10" style="fill:#f7931e"/>
    <ellipse class="cls-2" cx="116.91" cy="247.37" rx="33.2" ry="35.82" transform="translate(-69.08 -24.54) rotate(-1.18)" id="ellipse12" style="fill:#0071bc"/>
    <ellipse class="cls-2" cx="286.6" cy="97.37" rx="31.4" ry="34.26" id="ellipse14" style="fill:#0071bc"/>
    <ellipse class="cls-2" cx="235.79" cy="44.51" rx="22.81" ry="24.9" id="ellipse16" style="fill:#0071bc"/>
    <ellipse class="cls-2" cx="157.09" cy="35.38" rx="32.43" ry="35.38" id="ellipse18" style="fill:#0071bc"/>
    <ellipse class="cls-2" cx="22.6" cy="142.61" rx="22.6" ry="23.99" id="ellipse20" style="fill:#0071bc"/>
  </g>
  <g id="Layer_3" data-name="Layer 3">
    <path d="M493.38,241.54H501a14.72,14.72,0,0,1,2.92.31,7.88,7.88,0,0,1,2.64,1,5.82,5.82,0,0,1,1.91,2,6.22,6.22,0,0,1,.74,3.17,5.37,5.37,0,0,1-1.23,3.51,5.75,5.75,0,0,1-3.3,2v.07a6.78,6.78,0,0,1,4.12,1.93,6,6,0,0,1,1.63,4.45,6.33,6.33,0,0,1-.66,2.89,6.44,6.44,0,0,1-1.89,2.24,9.17,9.17,0,0,1-3,1.42,14.56,14.56,0,0,1-3.95.5h-7.55ZM496,252.7h5.22a8.83,8.83,0,0,0,1.89-.21,5.38,5.38,0,0,0,1.74-.74,3.89,3.89,0,0,0,1.28-1.39,4.29,4.29,0,0,0,.49-2.12,4.12,4.12,0,0,0-.49-2.07,4,4,0,0,0-1.31-1.39,5.77,5.77,0,0,0-1.95-.77,11.21,11.21,0,0,0-2.37-.23H496Zm0,12.1h4.82a12.89,12.89,0,0,0,2.68-.27,7,7,0,0,0,2.23-.86,4.63,4.63,0,0,0,1.53-1.55,4.93,4.93,0,0,0-1.13-6.05,8.11,8.11,0,0,0-4.84-1.24H496Z" transform="translate(-64 -27)" id="path23"/>
    <path d="M516.1,252.13c0-.72-.06-1.37-.11-1.95h2.34c0,.46.09,1,.11,1.52s0,1,0,1.36h.07a5.84,5.84,0,0,1,2.16-2.39,5.92,5.92,0,0,1,3.24-.92,7.17,7.17,0,0,1,.84,0,4.42,4.42,0,0,1,.78.14l-.33,2.34a4.52,4.52,0,0,0-.72-.14,6.73,6.73,0,0,0-1-.07,5.23,5.23,0,0,0-1.88.35,3.94,3.94,0,0,0-1.56,1.14,5.7,5.7,0,0,0-1.08,2,8.82,8.82,0,0,0-.42,2.89V267h-2.44V253.89C516.14,253.44,516.12,252.85,516.1,252.13Z" transform="translate(-64 -27)" id="path25"/>
    <path d="M539.28,256.13a4.21,4.21,0,0,0-1.15-3.25,4.72,4.72,0,0,0-3.35-1.08,7.2,7.2,0,0,0-2.8.54,6.67,6.67,0,0,0-2.2,1.44l-1.37-1.62a8.13,8.13,0,0,1,2.76-1.72,10.27,10.27,0,0,1,3.87-.69,8.41,8.41,0,0,1,2.55.38,6.12,6.12,0,0,1,2.09,1.13,5.1,5.1,0,0,1,1.4,1.91,6.64,6.64,0,0,1,.51,2.7v7.38c0,.65,0,1.32.07,2a13.77,13.77,0,0,0,.22,1.76h-2.2c-.07-.41-.13-.85-.18-1.33a13.53,13.53,0,0,1-.07-1.4h-.07a7.27,7.27,0,0,1-2.61,2.43,8.31,8.31,0,0,1-5.51.46,5.45,5.45,0,0,1-1.87-.88,4.93,4.93,0,0,1-1.41-1.59,4.77,4.77,0,0,1-.56-2.39,4.51,4.51,0,0,1,1-3.08,5.94,5.94,0,0,1,2.65-1.7,15.28,15.28,0,0,1,3.8-.72c1.43-.11,2.91-.17,4.44-.17Zm-.72,2.48c-1,0-2,0-3,.12a13.8,13.8,0,0,0-2.77.51,5.13,5.13,0,0,0-2,1.1,2.44,2.44,0,0,0-.8,1.9,3.08,3.08,0,0,0,.35,1.52,2.88,2.88,0,0,0,.91,1,4,4,0,0,0,1.28.54,6.79,6.79,0,0,0,1.42.16,5.6,5.6,0,0,0,2.31-.45,4.89,4.89,0,0,0,1.69-1.23,5.45,5.45,0,0,0,1-1.78,6.25,6.25,0,0,0,.36-2.12v-1.26Z" transform="translate(-64 -27)" id="path27"/>
    <path d="M550.08,250.18c0,.46.09,1,.11,1.52s0,1,0,1.36h.07a5.55,5.55,0,0,1,2.34-2.39,6.86,6.86,0,0,1,3.42-.92,5.91,5.91,0,0,1,4.8,1.91,7.56,7.56,0,0,1,1.61,5V267H560v-9.32a11.85,11.85,0,0,0-.22-2.41,5,5,0,0,0-.74-1.86,3.42,3.42,0,0,0-1.4-1.2,5,5,0,0,0-2.21-.44,4.79,4.79,0,0,0-1.89.4,4.55,4.55,0,0,0-1.64,1.21,6,6,0,0,0-1.15,2.05,8.86,8.86,0,0,0-.44,2.93V267h-2.44V253.89c0-.45,0-1,0-1.76s-.06-1.37-.11-1.95Z" transform="translate(-64 -27)" id="path29"/>
    <path d="M571,250.18c0,.46.08,1,.11,1.52s0,1,0,1.36h.07a5.57,5.57,0,0,1,2.35-2.39,6.8,6.8,0,0,1,3.42-.92,5.93,5.93,0,0,1,4.8,1.91,7.56,7.56,0,0,1,1.6,5V267h-2.44v-9.32a12.6,12.6,0,0,0-.22-2.41,5,5,0,0,0-.74-1.86,3.49,3.49,0,0,0-1.4-1.2,5,5,0,0,0-2.22-.44,4.79,4.79,0,0,0-1.89.4,4.63,4.63,0,0,0-1.64,1.21,6,6,0,0,0-1.15,2.05,9.14,9.14,0,0,0-.43,2.93V267H568.8V253.89c0-.45,0-1,0-1.76s-.06-1.37-.11-1.95Z" transform="translate(-64 -27)" id="path31"/>
    <path d="M592.71,243.7a1.61,1.61,0,0,1-.54,1.25,1.72,1.72,0,0,1-2.38,0,1.71,1.71,0,0,1,0-2.49,1.72,1.72,0,0,1,2.38,0A1.61,1.61,0,0,1,592.71,243.7ZM592.2,267h-2.45V250.18h2.45Z" transform="translate(-64 -27)" id="path33"/>
    <path d="M599.62,270.42a8.18,8.18,0,0,0,2.75,2.19,8.53,8.53,0,0,0,6.75.38,5.37,5.37,0,0,0,2-1.42,5.73,5.73,0,0,0,1.13-2.11,8.92,8.92,0,0,0,.36-2.57v-3.17h-.07a6.46,6.46,0,0,1-2.76,2.45,8.25,8.25,0,0,1-3.61.86,9.37,9.37,0,0,1-3.59-.65,8,8,0,0,1-2.73-1.78,7.81,7.81,0,0,1-1.77-2.72,9.49,9.49,0,0,1,0-6.8,8.42,8.42,0,0,1,1.77-2.77,8.09,8.09,0,0,1,2.73-1.87,9,9,0,0,1,3.59-.69,8.08,8.08,0,0,1,3.6.87,6.59,6.59,0,0,1,2.77,2.48h.07v-2.92h2.45v16.71a12.38,12.38,0,0,1-.38,2.91,7.45,7.45,0,0,1-1.4,2.85,8.14,8.14,0,0,1-2.79,2.16,10.54,10.54,0,0,1-4.58.86,11.32,11.32,0,0,1-4.46-.9,10.84,10.84,0,0,1-3.64-2.48Zm.47-12a7.25,7.25,0,0,0,.43,2.52,6.37,6.37,0,0,0,1.24,2.09,5.82,5.82,0,0,0,2,1.42,6.6,6.6,0,0,0,2.7.52,7.05,7.05,0,0,0,2.59-.46,6,6,0,0,0,2.05-1.34,5.9,5.9,0,0,0,1.35-2.07,7,7,0,0,0,.49-2.68,6.67,6.67,0,0,0-1.84-4.61,6.54,6.54,0,0,0-2.05-1.44,6.19,6.19,0,0,0-2.59-.54,6.44,6.44,0,0,0-2.7.54,6,6,0,0,0-2,1.44,6.37,6.37,0,0,0-1.24,2.09A7.25,7.25,0,0,0,600.09,258.39Z" transform="translate(-64 -27)" id="path35"/>
    <path d="M632.09,256.13a4.21,4.21,0,0,0-1.15-3.25,4.74,4.74,0,0,0-3.35-1.08,7.25,7.25,0,0,0-2.81.54,6.73,6.73,0,0,0-2.19,1.44l-1.37-1.62a8,8,0,0,1,2.75-1.72,10.27,10.27,0,0,1,3.87-.69,8.47,8.47,0,0,1,2.56.38,6.12,6.12,0,0,1,2.09,1.13,5.21,5.21,0,0,1,1.4,1.91,6.64,6.64,0,0,1,.5,2.7v7.38c0,.65,0,1.32.08,2a14,14,0,0,0,.21,1.76h-2.19a12.24,12.24,0,0,1-.18-1.33,13.6,13.6,0,0,1-.08-1.4h-.07a7.27,7.27,0,0,1-2.61,2.43,7.71,7.71,0,0,1-3.51.73,7.87,7.87,0,0,1-2-.27,5.63,5.63,0,0,1-1.87-.88,5,5,0,0,1-1.4-1.59,4.77,4.77,0,0,1-.56-2.39,4.51,4.51,0,0,1,1-3.08,5.88,5.88,0,0,1,2.65-1.7,15.29,15.29,0,0,1,3.79-.72c1.43-.11,2.91-.17,4.45-.17Zm-.72,2.48c-1,0-2,0-3,.12a13.67,13.67,0,0,0-2.77.51,5.24,5.24,0,0,0-2,1.1,2.43,2.43,0,0,0-.79,1.9,3.08,3.08,0,0,0,.34,1.52,3,3,0,0,0,.92,1,4,4,0,0,0,1.28.54,6.79,6.79,0,0,0,1.42.16A5.59,5.59,0,0,0,629,265a4.83,4.83,0,0,0,1.7-1.23,5.45,5.45,0,0,0,1-1.78,6.25,6.25,0,0,0,.36-2.12v-1.26Z" transform="translate(-64 -27)" id="path37"/>
    <path d="M642.89,250.18c.05.46.08,1,.11,1.52s0,1,0,1.36h.08a5.55,5.55,0,0,1,2.34-2.39,6.86,6.86,0,0,1,3.42-.92,5.93,5.93,0,0,1,4.8,1.91,7.56,7.56,0,0,1,1.6,5V267h-2.44v-9.32a12.6,12.6,0,0,0-.22-2.41,5,5,0,0,0-.74-1.86,3.49,3.49,0,0,0-1.4-1.2,5,5,0,0,0-2.22-.44,4.86,4.86,0,0,0-1.89.4,4.6,4.6,0,0,0-1.63,1.21,6,6,0,0,0-1.16,2.05,9.14,9.14,0,0,0-.43,2.93V267h-2.45V253.89c0-.45,0-1,0-1.76s-.06-1.37-.11-1.95Z" transform="translate(-64 -27)" id="path39"/>
    <path d="M673.35,264.73h11.88V267H670.75V241.54h2.6Z" transform="translate(-64 -27)" id="path41"/>
    <path d="M699.59,256.13a4.21,4.21,0,0,0-1.15-3.25,4.74,4.74,0,0,0-3.35-1.08,7.25,7.25,0,0,0-2.81.54,6.73,6.73,0,0,0-2.19,1.44l-1.37-1.62a8,8,0,0,1,2.75-1.72,10.27,10.27,0,0,1,3.87-.69,8.47,8.47,0,0,1,2.56.38,6.22,6.22,0,0,1,2.09,1.13,5.33,5.33,0,0,1,1.4,1.91,6.81,6.81,0,0,1,.5,2.7v7.38c0,.65,0,1.32.07,2a15.85,15.85,0,0,0,.22,1.76H700a12.24,12.24,0,0,1-.18-1.33,13.6,13.6,0,0,1-.08-1.4h-.07a7.27,7.27,0,0,1-2.61,2.43,7.71,7.71,0,0,1-3.51.73,7.87,7.87,0,0,1-2-.27,5.63,5.63,0,0,1-1.87-.88,5,5,0,0,1-1.4-1.59,4.67,4.67,0,0,1-.56-2.39,4.51,4.51,0,0,1,1-3.08,5.88,5.88,0,0,1,2.65-1.7,15.2,15.2,0,0,1,3.79-.72c1.43-.11,2.91-.17,4.45-.17Zm-.72,2.48c-1,0-2,0-3,.12a13.67,13.67,0,0,0-2.77.51,5.24,5.24,0,0,0-2,1.1,2.43,2.43,0,0,0-.79,1.9,3.08,3.08,0,0,0,.34,1.52,3,3,0,0,0,.92,1,4,4,0,0,0,1.28.54,6.79,6.79,0,0,0,1.42.16,5.59,5.59,0,0,0,2.3-.45,4.83,4.83,0,0,0,1.7-1.23,5.45,5.45,0,0,0,1-1.78,6.25,6.25,0,0,0,.36-2.12v-1.26Z" transform="translate(-64 -27)" id="path43"/>
    <path d="M710.71,264.19V267h-2.44V239.82h2.44V253.1h.08a6.94,6.94,0,0,1,2.8-2.5,8,8,0,0,1,3.57-.85,9,9,0,0,1,3.58.69,8.14,8.14,0,0,1,2.74,1.87,8.53,8.53,0,0,1,1.76,2.81,10,10,0,0,1,0,7,8.53,8.53,0,0,1-1.76,2.81,8.28,8.28,0,0,1-2.74,1.87,9.14,9.14,0,0,1-3.58.68,8.21,8.21,0,0,1-3.57-.82,7,7,0,0,1-2.8-2.45Zm12.57-5.58a8.22,8.22,0,0,0-.43-2.65,6.42,6.42,0,0,0-1.25-2.16,5.87,5.87,0,0,0-2-1.46,6.51,6.51,0,0,0-2.7-.54,6.39,6.39,0,0,0-2.6.53,6,6,0,0,0-2,1.44,6.81,6.81,0,0,0-1.35,2.16,7.72,7.72,0,0,0,0,5.36,6.61,6.61,0,0,0,1.35,2.14,6.28,6.28,0,0,0,2,1.42,6.39,6.39,0,0,0,2.6.53,6.67,6.67,0,0,0,2.7-.53,5.46,5.46,0,0,0,2-1.44,6.42,6.42,0,0,0,1.25-2.16A8.16,8.16,0,0,0,723.28,258.61Z" transform="translate(-64 -27)" id="path45"/>
    <path d="M739.51,254.29a6.09,6.09,0,0,1,.51-2.49,6.54,6.54,0,0,1,3.38-3.38,6.43,6.43,0,0,1,5,0,6.56,6.56,0,0,1,2,1.37,6.49,6.49,0,0,1,1.36,2,6.31,6.31,0,0,1,0,5,6.53,6.53,0,0,1-1.36,2,6.74,6.74,0,0,1-2,1.37,6.43,6.43,0,0,1-5,0,6.57,6.57,0,0,1-2-1.37,6.39,6.39,0,0,1-1.37-2A6,6,0,0,1,739.51,254.29Z" transform="translate(-64 -27)" id="path47"/>
    <path d="M769.86,267h-2.59V241.54h7.49a15.86,15.86,0,0,1,3.47.36,7.81,7.81,0,0,1,2.77,1.17,5.55,5.55,0,0,1,1.82,2.11,7,7,0,0,1,.65,3.17,6.29,6.29,0,0,1-3.92,5.9,9,9,0,0,1-2.6.65L784.41,267h-3.17l-7.06-11.91h-4.32Zm0-14.15h4.5a8.63,8.63,0,0,0,4.83-1.13,3.84,3.84,0,0,0,1.69-3.4,4.47,4.47,0,0,0-.47-2.13,3.79,3.79,0,0,0-1.3-1.4,5.91,5.91,0,0,0-2-.79,12.56,12.56,0,0,0-2.63-.25h-4.61Z" transform="translate(-64 -27)" id="path49"/>
    <path d="M800.5,267c0-.45-.09-1-.11-1.51s0-1,0-1.37h-.07a5.57,5.57,0,0,1-2.34,2.4,6.85,6.85,0,0,1-3.42.91,5.89,5.89,0,0,1-4.8-1.9,7.6,7.6,0,0,1-1.61-5V250.18h2.45v9.33a11.85,11.85,0,0,0,.22,2.41,4.89,4.89,0,0,0,.74,1.85,3.44,3.44,0,0,0,1.4,1.21,5,5,0,0,0,2.21.43A4.77,4.77,0,0,0,797,265a4.66,4.66,0,0,0,1.64-1.21,5.87,5.87,0,0,0,1.15-2.05,8.92,8.92,0,0,0,.44-2.94v-8.64h2.44v13.14c0,.46,0,1.05,0,1.77s.06,1.37.11,1.94Z" transform="translate(-64 -27)" id="path51"/>
    <path d="M816.77,252.24H812v9.82a5.59,5.59,0,0,0,.18,1.55,2.2,2.2,0,0,0,.52,1,1.82,1.82,0,0,0,.81.46,3.63,3.63,0,0,0,1,.13,4.55,4.55,0,0,0,1.06-.14,5.39,5.39,0,0,0,1.06-.4l.11,2.12a6.74,6.74,0,0,1-1.35.38,8.16,8.16,0,0,1-1.53.13,6.17,6.17,0,0,1-1.44-.18,3.6,3.6,0,0,1-1.4-.69A3.69,3.69,0,0,1,810,265a5.42,5.42,0,0,1-.41-2.27V252.24h-3.49v-2.06h3.49v-4.75H812v4.75h4.75Z" transform="translate(-64 -27)" id="path53"/>
    <path d="M821.48,270.42a8.22,8.22,0,0,0,2.76,2.19A8.53,8.53,0,0,0,831,273a5.26,5.26,0,0,0,2-1.42,5.6,5.6,0,0,0,1.14-2.11,8.92,8.92,0,0,0,.36-2.57v-3.17h-.08a6.38,6.38,0,0,1-2.75,2.45,8.29,8.29,0,0,1-3.62.86,9.32,9.32,0,0,1-3.58-.65,8.07,8.07,0,0,1-2.74-1.78,7.93,7.93,0,0,1-1.76-2.72,9.49,9.49,0,0,1,0-6.8,8.56,8.56,0,0,1,1.76-2.77,8.14,8.14,0,0,1,2.74-1.87,9,9,0,0,1,3.58-.69,8,8,0,0,1,3.6.87,6.53,6.53,0,0,1,2.77,2.48h.08v-2.92H837v16.71a12.34,12.34,0,0,1-.37,2.91,7.47,7.47,0,0,1-1.41,2.85,8,8,0,0,1-2.79,2.16,10.49,10.49,0,0,1-4.57.86,11.28,11.28,0,0,1-4.46-.9,10.84,10.84,0,0,1-3.64-2.48Zm.47-12a7.49,7.49,0,0,0,.43,2.52,6.39,6.39,0,0,0,1.25,2.09,5.78,5.78,0,0,0,2,1.42,6.68,6.68,0,0,0,2.71.52,7.09,7.09,0,0,0,2.59-.46,6,6,0,0,0,3.4-3.41,7.15,7.15,0,0,0,.48-2.68,6.55,6.55,0,0,0-3.88-6,6.23,6.23,0,0,0-2.59-.54,6.52,6.52,0,0,0-2.71.54,6,6,0,0,0-2,1.44,6.39,6.39,0,0,0-1.25,2.09A7.49,7.49,0,0,0,822,258.39Z" transform="translate(-64 -27)" id="path55"/>
    <path d="M858.67,258.1v.54c0,.2,0,.4,0,.62h-14a6.48,6.48,0,0,0,.5,2.37,6.06,6.06,0,0,0,1.3,1.95,6.21,6.21,0,0,0,1.94,1.31,6.07,6.07,0,0,0,2.41.49,6,6,0,0,0,3.3-.89,6.5,6.5,0,0,0,2.1-2l1.84,1.44a8.71,8.71,0,0,1-7.24,3.56,9,9,0,0,1-3.47-.66,8,8,0,0,1-2.75-1.86,8.63,8.63,0,0,1-1.82-2.8,9.1,9.1,0,0,1-.67-3.53,9.47,9.47,0,0,1,.65-3.53,8.47,8.47,0,0,1,1.8-2.81,8.35,8.35,0,0,1,6.05-2.52,8.49,8.49,0,0,1,3.49.67,7.06,7.06,0,0,1,2.52,1.8,7.79,7.79,0,0,1,1.53,2.64A9.83,9.83,0,0,1,858.67,258.1Zm-2.48-.79a6,6,0,0,0-1.53-3.94,5.21,5.21,0,0,0-4-1.57,5.68,5.68,0,0,0-2.27.45,5.94,5.94,0,0,0-1.84,1.23,6.07,6.07,0,0,0-1.25,1.76,5.39,5.39,0,0,0-.54,2.07Z" transform="translate(-64 -27)" id="path57"/>
    <path d="M863.89,252.13c0-.72-.06-1.37-.11-1.95h2.34c0,.46.09,1,.11,1.52s0,1,0,1.36h.07a5.84,5.84,0,0,1,2.16-2.39,5.92,5.92,0,0,1,3.24-.92,7.46,7.46,0,0,1,.85,0,4.31,4.31,0,0,1,.77.14l-.32,2.34a5.06,5.06,0,0,0-.72-.14,7,7,0,0,0-1-.07,5.17,5.17,0,0,0-1.87.35,4,4,0,0,0-1.57,1.14,6,6,0,0,0-1.08,2,8.83,8.83,0,0,0-.41,2.89V267h-2.45V253.89C863.93,253.44,863.92,252.85,863.89,252.13Z" transform="translate(-64 -27)" id="path59"/>
    <path d="M885.85,254.18a4.2,4.2,0,0,0-1.64-1.71,4.75,4.75,0,0,0-2.5-.67,5.68,5.68,0,0,0-1.29.15,3.33,3.33,0,0,0-1.16.47,2.64,2.64,0,0,0-.81.82,2.31,2.31,0,0,0-.3,1.19,2,2,0,0,0,1,1.82,9.43,9.43,0,0,0,3.06,1.06,10.26,10.26,0,0,1,4.41,1.78,3.86,3.86,0,0,1,1.42,3.15,4.8,4.8,0,0,1-.56,2.43,4.92,4.92,0,0,1-1.45,1.62,5.88,5.88,0,0,1-2,.9,9.8,9.8,0,0,1-2.28.27,9.06,9.06,0,0,1-3.71-.79,6.81,6.81,0,0,1-3-2.48l1.94-1.44a5.53,5.53,0,0,0,4.68,2.63,7.36,7.36,0,0,0,1.51-.15,3.37,3.37,0,0,0,1.26-.5,2.83,2.83,0,0,0,.87-.92,2.77,2.77,0,0,0,.32-1.39,2.14,2.14,0,0,0-1.28-2,16.58,16.58,0,0,0-3.69-1.25c-.5-.12-1-.27-1.6-.45a5.39,5.39,0,0,1-1.57-.79,4.24,4.24,0,0,1-1.18-1.31,3.77,3.77,0,0,1-.47-2,4.28,4.28,0,0,1,1.85-3.73,6.08,6.08,0,0,1,1.93-.88,8.69,8.69,0,0,1,2.23-.29,7.93,7.93,0,0,1,3.42.79,5.54,5.54,0,0,1,2.48,2.24Z" transform="translate(-64 -27)" id="path61"/>
    <path d="M911.41,267.68a9.85,9.85,0,0,1-4.71-1,8.35,8.35,0,0,1-2.92-2.5,9.12,9.12,0,0,1-1.49-3.3,14.63,14.63,0,0,1-.42-3.36v-16h2.59v15.7a12.59,12.59,0,0,0,.36,3,7.55,7.55,0,0,0,1.17,2.59,6.07,6.07,0,0,0,2.14,1.83,7.93,7.93,0,0,0,6.56,0,6.07,6.07,0,0,0,2.14-1.83,7.55,7.55,0,0,0,1.17-2.59,12.59,12.59,0,0,0,.36-3v-15.7H921v16a15.17,15.17,0,0,1-.41,3.36,9.31,9.31,0,0,1-1.5,3.3,8.38,8.38,0,0,1-2.93,2.5A9.92,9.92,0,0,1,911.41,267.68Z" transform="translate(-64 -27)" id="path63"/>
    <path d="M929.63,250.18c0,.46.08,1,.1,1.52s0,1,0,1.36h.07a5.55,5.55,0,0,1,2.34-2.39,6.86,6.86,0,0,1,3.42-.92,5.93,5.93,0,0,1,4.81,1.91,7.56,7.56,0,0,1,1.6,5V267h-2.45v-9.32a12.65,12.65,0,0,0-.21-2.41,5.18,5.18,0,0,0-.74-1.86,3.52,3.52,0,0,0-1.41-1.2,4.94,4.94,0,0,0-2.21-.44,4.79,4.79,0,0,0-1.89.4,4.63,4.63,0,0,0-1.64,1.21,6,6,0,0,0-1.15,2.05,8.87,8.87,0,0,0-.43,2.93V267h-2.45V253.89c0-.45,0-1,0-1.76s-.06-1.37-.1-1.95Z" transform="translate(-64 -27)" id="path65"/>
    <path d="M951.33,243.7a1.61,1.61,0,0,1-.54,1.25,1.7,1.7,0,0,1-2.37,0,1.71,1.71,0,0,1,0-2.49,1.7,1.7,0,0,1,2.37,0A1.61,1.61,0,0,1,951.33,243.7Zm-.5,23.33h-2.45V250.18h2.45Z" transform="translate(-64 -27)" id="path67"/>
    <path d="M964.26,267h-2.7l-6.88-16.85h2.74l5.47,14.26H963l5.51-14.26h2.63Z" transform="translate(-64 -27)" id="path69"/>
    <path d="M990.25,258.1v.54a4.49,4.49,0,0,1,0,.62h-14a6.48,6.48,0,0,0,.5,2.37,5.9,5.9,0,0,0,1.3,1.95,6.21,6.21,0,0,0,1.94,1.31,6.39,6.39,0,0,0,5.71-.4,6.5,6.5,0,0,0,2.1-2l1.84,1.44a8.71,8.71,0,0,1-7.24,3.56,9,9,0,0,1-3.47-.66,8.15,8.15,0,0,1-2.76-1.86,8.77,8.77,0,0,1-1.81-2.8,9.1,9.1,0,0,1-.67-3.53,9.47,9.47,0,0,1,.65-3.53,8.47,8.47,0,0,1,1.8-2.81,8.35,8.35,0,0,1,6.05-2.52,8.49,8.49,0,0,1,3.49.67,7.06,7.06,0,0,1,2.52,1.8,7.79,7.79,0,0,1,1.53,2.64A9.83,9.83,0,0,1,990.25,258.1Zm-2.48-.79a6.15,6.15,0,0,0-1.53-3.94,5.21,5.21,0,0,0-4-1.57,5.64,5.64,0,0,0-2.27.45,6.11,6.11,0,0,0-3.1,3,5.77,5.77,0,0,0-.54,2.07Z" transform="translate(-64 -27)" id="path71"/>
    <path d="M995.47,252.13c0-.72-.06-1.37-.11-1.95h2.34c0,.46.09,1,.11,1.52s0,1,0,1.36h.07a5.84,5.84,0,0,1,2.16-2.39,5.92,5.92,0,0,1,3.24-.92,7.17,7.17,0,0,1,.84,0,4.42,4.42,0,0,1,.78.14l-.33,2.34a4.52,4.52,0,0,0-.72-.14,6.73,6.73,0,0,0-1-.07,5.23,5.23,0,0,0-1.88.35,3.94,3.94,0,0,0-1.56,1.14,5.7,5.7,0,0,0-1.08,2,8.82,8.82,0,0,0-.42,2.89V267h-2.44V253.89C995.51,253.44,995.49,252.85,995.47,252.13Z" transform="translate(-64 -27)" id="path73"/>
    <path d="M1017.43,254.18a4.27,4.27,0,0,0-1.64-1.71,4.75,4.75,0,0,0-2.5-.67,5.83,5.83,0,0,0-1.3.15,3.36,3.36,0,0,0-1.15.47,2.54,2.54,0,0,0-.81.82,2.31,2.31,0,0,0-.3,1.19,2,2,0,0,0,1,1.82,9.43,9.43,0,0,0,3.06,1.06,10.26,10.26,0,0,1,4.41,1.78,3.86,3.86,0,0,1,1.42,3.15,4.91,4.91,0,0,1-.56,2.43,4.84,4.84,0,0,1-1.46,1.62,5.83,5.83,0,0,1-2,.9,9.88,9.88,0,0,1-2.29.27,9.05,9.05,0,0,1-3.7-.79,6.83,6.83,0,0,1-3-2.48l1.95-1.44a5.53,5.53,0,0,0,4.68,2.63,7.36,7.36,0,0,0,1.51-.15,3.37,3.37,0,0,0,1.26-.5,2.7,2.7,0,0,0,.86-.92,2.67,2.67,0,0,0,.33-1.39,2.14,2.14,0,0,0-1.28-2,16.58,16.58,0,0,0-3.69-1.25c-.5-.12-1-.27-1.6-.45a5.39,5.39,0,0,1-1.57-.79,4.4,4.4,0,0,1-1.19-1.31,3.87,3.87,0,0,1-.46-2,4.28,4.28,0,0,1,1.85-3.73,6.08,6.08,0,0,1,1.93-.88,8.69,8.69,0,0,1,2.23-.29,8,8,0,0,1,3.42.79,5.54,5.54,0,0,1,2.48,2.24Z" transform="translate(-64 -27)" id="path75"/>
    <path d="M1027.44,243.7a1.61,1.61,0,0,1-.54,1.25,1.72,1.72,0,0,1-2.38,0,1.71,1.71,0,0,1,0-2.49,1.72,1.72,0,0,1,2.38,0A1.61,1.61,0,0,1,1027.44,243.7Zm-.51,23.33h-2.44V250.18h2.44Z" transform="translate(-64 -27)" id="path77"/>
    <path d="M1041,252.24h-4.75v9.82a5.59,5.59,0,0,0,.18,1.55,2.21,2.21,0,0,0,.53,1,1.74,1.74,0,0,0,.8.46,3.68,3.68,0,0,0,1,.13,4.63,4.63,0,0,0,1.07-.14,5.64,5.64,0,0,0,1.06-.4l.1,2.12a6.84,6.84,0,0,1-1.34.38,8.16,8.16,0,0,1-1.53.13,6.32,6.32,0,0,1-1.45-.18,3.6,3.6,0,0,1-1.4-.69,3.67,3.67,0,0,1-1.06-1.36,5.26,5.26,0,0,1-.42-2.27V252.24h-3.49v-2.06h3.49v-4.75h2.45v4.75H1041Z" transform="translate(-64 -27)" id="path79"/>
    <path d="M1050.66,264.4h.07l5.22-14.22h2.66l-8.39,21.21a8.86,8.86,0,0,1-1.92,3.11,4.56,4.56,0,0,1-3.37,1.17,11.45,11.45,0,0,1-2.19-.21l.25-2.24a5.39,5.39,0,0,0,1.8.29,2.59,2.59,0,0,0,2-.77,6.76,6.76,0,0,0,1.26-2.22l1.37-3.52-7.2-16.82h2.73Z" transform="translate(-64 -27)" id="path81"/>
    <path d="M1088.71,259.33h-19.44v-2.05h19.44Z" transform="translate(-64 -27)" id="path83"/>
    <path d="M1123.63,262.89a10.72,10.72,0,0,1-1.57,1.84,10.14,10.14,0,0,1-2.12,1.52,12,12,0,0,1-2.67,1.05,12.72,12.72,0,0,1-3.18.38,13.9,13.9,0,0,1-5.33-1,12.49,12.49,0,0,1-4.21-2.79,12.71,12.71,0,0,1-2.76-4.23,14.89,14.89,0,0,1,0-10.73,12.78,12.78,0,0,1,2.79-4.23,13.12,13.12,0,0,1,4.21-2.79,13.68,13.68,0,0,1,5.28-1,12.65,12.65,0,0,1,2.75.29,12.79,12.79,0,0,1,2.54.82,11,11,0,0,1,2.16,1.27,7.55,7.55,0,0,1,1.62,1.68l-2.16,1.59a6.83,6.83,0,0,0-1.06-1.23,8,8,0,0,0-1.57-1.08,9.72,9.72,0,0,0-2-.75,8.81,8.81,0,0,0-2.29-.29,10.55,10.55,0,0,0-4.44.9,9.8,9.8,0,0,0-3.33,2.42,10.46,10.46,0,0,0-2.09,3.53,12.46,12.46,0,0,0-.72,4.24,12.22,12.22,0,0,0,.74,4.23,10.86,10.86,0,0,0,2.1,3.54,10.07,10.07,0,0,0,3.33,2.42,10.47,10.47,0,0,0,4.41.9,10,10,0,0,0,4.18-.9,7.92,7.92,0,0,0,3.31-2.88Z" transform="translate(-64 -27)" id="path85"/>
    <path d="M1137.92,256.13a4.21,4.21,0,0,0-1.15-3.25,4.74,4.74,0,0,0-3.35-1.08,7.25,7.25,0,0,0-2.81.54,6.73,6.73,0,0,0-2.19,1.44l-1.37-1.62a8,8,0,0,1,2.75-1.72,10.27,10.27,0,0,1,3.87-.69,8.47,8.47,0,0,1,2.56.38,6.12,6.12,0,0,1,2.09,1.13,5.21,5.21,0,0,1,1.4,1.91,6.64,6.64,0,0,1,.5,2.7v7.38c0,.65,0,1.32.08,2a14,14,0,0,0,.21,1.76h-2.19a12.24,12.24,0,0,1-.18-1.33,13.6,13.6,0,0,1-.08-1.4H1138a7.27,7.27,0,0,1-2.61,2.43,7.71,7.71,0,0,1-3.51.73,7.87,7.87,0,0,1-2-.27,5.63,5.63,0,0,1-1.87-.88,5,5,0,0,1-1.4-1.59,4.77,4.77,0,0,1-.56-2.39,4.51,4.51,0,0,1,1-3.08,5.88,5.88,0,0,1,2.65-1.7,15.2,15.2,0,0,1,3.79-.72c1.43-.11,2.91-.17,4.45-.17Zm-.72,2.48c-1,0-2,0-3,.12a13.67,13.67,0,0,0-2.77.51,5.24,5.24,0,0,0-2,1.1,2.43,2.43,0,0,0-.79,1.9,3.08,3.08,0,0,0,.34,1.52,3,3,0,0,0,.92,1,4,4,0,0,0,1.28.54,6.79,6.79,0,0,0,1.42.16,5.59,5.59,0,0,0,2.3-.45,4.83,4.83,0,0,0,1.7-1.23,5.45,5.45,0,0,0,1-1.78,6.25,6.25,0,0,0,.36-2.12v-1.26Z" transform="translate(-64 -27)" id="path87"/>
    <path d="M1151.15,250.67a6.22,6.22,0,0,1,3.33-.92,7.15,7.15,0,0,1,1.42.15,4.55,4.55,0,0,1,1.44.55,5.55,5.55,0,0,1,1.3,1.1,6.2,6.2,0,0,1,1,1.77,6.37,6.37,0,0,1,2.36-2.65,6.68,6.68,0,0,1,3.55-.92,5.93,5.93,0,0,1,4.8,1.91,7.56,7.56,0,0,1,1.61,5V267h-2.45v-9.32a8.16,8.16,0,0,0-1-4.29,3.64,3.64,0,0,0-3.37-1.62,4.36,4.36,0,0,0-2.25.54,4.28,4.28,0,0,0-1.47,1.43,6.1,6.1,0,0,0-.82,2,11,11,0,0,0-.25,2.31v9h-2.44V257.2a11.81,11.81,0,0,0-.19-2.23,4.68,4.68,0,0,0-.63-1.71,2.85,2.85,0,0,0-1.24-1.08,4.68,4.68,0,0,0-2-.38,4.32,4.32,0,0,0-1.75.4,4.43,4.43,0,0,0-1.58,1.21,6.19,6.19,0,0,0-1.14,2.05,9.14,9.14,0,0,0-.43,2.93V267h-2.45V253.89c0-.45,0-1,0-1.76s-.06-1.37-.11-1.95h2.34c0,.46.08,1,.11,1.52s0,1,0,1.36h.08A5.7,5.7,0,0,1,1151.15,250.67Z" transform="translate(-64 -27)" id="path89"/>
    <path d="M1192.17,264.19a6.93,6.93,0,0,1-2.81,2.45,8.17,8.17,0,0,1-3.56.82,9.14,9.14,0,0,1-3.58-.68,8.28,8.28,0,0,1-2.74-1.87,8.53,8.53,0,0,1-1.76-2.81,10,10,0,0,1,0-7,8.53,8.53,0,0,1,1.76-2.81,8.14,8.14,0,0,1,2.74-1.87,9,9,0,0,1,3.58-.69,7.93,7.93,0,0,1,3.56.85,6.91,6.91,0,0,1,2.81,2.5h.07V239.82h2.45V267h-2.45v-2.84Zm-12.49-5.58a7.9,7.9,0,0,0,.43,2.64,6.39,6.39,0,0,0,1.24,2.16,5.49,5.49,0,0,0,2,1.44,6.6,6.6,0,0,0,2.7.53,6.31,6.31,0,0,0,2.59-.53,6.22,6.22,0,0,0,2.06-1.42,6.42,6.42,0,0,0,1.34-2.14,7.57,7.57,0,0,0,0-5.36,6.62,6.62,0,0,0-1.34-2.16,6,6,0,0,0-2.06-1.44,6.31,6.31,0,0,0-2.59-.53,6.44,6.44,0,0,0-2.7.54,5.91,5.91,0,0,0-2,1.46,6.39,6.39,0,0,0-1.24,2.16A8,8,0,0,0,1179.68,258.61Z" transform="translate(-64 -27)" id="path91"/>
    <path d="M1216.58,258.1v.54a4.49,4.49,0,0,1,0,.62h-14a6.48,6.48,0,0,0,.5,2.37,5.9,5.9,0,0,0,1.3,1.95,6.21,6.21,0,0,0,1.94,1.31,6.39,6.39,0,0,0,5.71-.4,6.5,6.5,0,0,0,2.1-2l1.84,1.44a9.28,9.28,0,0,1-3.33,2.74,9.39,9.39,0,0,1-3.91.82,9,9,0,0,1-3.47-.66,8.15,8.15,0,0,1-2.76-1.86,8.8,8.8,0,0,1-1.82-2.8,9.28,9.28,0,0,1-.66-3.53,9.47,9.47,0,0,1,.65-3.53,8.47,8.47,0,0,1,1.8-2.81,8.07,8.07,0,0,1,2.7-1.85,8.24,8.24,0,0,1,3.34-.67,8.54,8.54,0,0,1,3.5.67,7.24,7.24,0,0,1,2.52,1.8,7.79,7.79,0,0,1,1.53,2.64A10.09,10.09,0,0,1,1216.58,258.1Zm-2.49-.79a6,6,0,0,0-1.53-3.94,5.18,5.18,0,0,0-4-1.57,5.63,5.63,0,0,0-2.26.45,6.11,6.11,0,0,0-3.1,3,5.77,5.77,0,0,0-.54,2.07Z" transform="translate(-64 -27)" id="path93"/>
    <path d="M1224,250.18c0,.46.08,1,.11,1.52s0,1,0,1.36h.08a5.55,5.55,0,0,1,2.34-2.39,6.86,6.86,0,0,1,3.42-.92,5.93,5.93,0,0,1,4.8,1.91,7.56,7.56,0,0,1,1.61,5V267H1234v-9.32a12.6,12.6,0,0,0-.22-2.41,5,5,0,0,0-.74-1.86,3.49,3.49,0,0,0-1.4-1.2,5,5,0,0,0-2.22-.44,4.86,4.86,0,0,0-1.89.4,4.6,4.6,0,0,0-1.63,1.21,6,6,0,0,0-1.16,2.05,9.14,9.14,0,0,0-.43,2.93V267h-2.45V253.89c0-.45,0-1,0-1.76s-.06-1.37-.11-1.95Z" transform="translate(-64 -27)" id="path95"/>
    <path d="M494.85,201.73c0,.18-.05.35-.07.51s0,.32,0,.46a6.71,6.71,0,0,0,.51,2.66,6.2,6.2,0,0,0,1.4,2.08,6.3,6.3,0,0,0,2.12,1.37,6.78,6.78,0,0,0,2.61.49,8.09,8.09,0,0,0,4.23-1.08,10,10,0,0,0,2.9-2.53l1.85,1.76a11.86,11.86,0,0,1-4.18,3.23,12.07,12.07,0,0,1-5.06,1.08,10.92,10.92,0,0,1-3.7-.61,8.83,8.83,0,0,1-3-1.76,8.33,8.33,0,0,1-2-2.84,9.75,9.75,0,0,1-.72-3.85,12.92,12.92,0,0,1,3.45-8.8,12.34,12.34,0,0,1,3.78-2.75,10.83,10.83,0,0,1,4.69-1q4.23,0,6.4,2.25a8,8,0,0,1,2.18,5.81c0,.35,0,.88-.09,1.6a13.26,13.26,0,0,1-.3,2Zm14.38-2.2c0-.23.06-.49.07-.77s0-.53,0-.77a5.39,5.39,0,0,0-1.45-3.89,5.61,5.61,0,0,0-4.27-1.52,8,8,0,0,0-3,.55,8.23,8.23,0,0,0-2.47,1.52,9.55,9.55,0,0,0-1.82,2.22,8.87,8.87,0,0,0-1.06,2.66Z" transform="translate(-64 -27)" id="path97"/>
    <path d="M516.67,202.87a13.7,13.7,0,0,1,.9-5,12,12,0,0,1,6.38-6.77,11.42,11.42,0,0,1,4.82-1,8.93,8.93,0,0,1,4.2,1,6.66,6.66,0,0,1,3,3H536L538.89,178h3l-5.9,33.26h-3l.62-3.38h-.09a8.59,8.59,0,0,1-3,2.75,9,9,0,0,1-4.54,1.16,10.63,10.63,0,0,1-3.8-.64,8.39,8.39,0,0,1-2.93-1.82,8,8,0,0,1-1.89-2.82A9.51,9.51,0,0,1,516.67,202.87Zm3.08-.19a7.75,7.75,0,0,0,.42,2.6,6,6,0,0,0,1.25,2.1,5.87,5.87,0,0,0,2,1.41,7,7,0,0,0,2.77.51,8.33,8.33,0,0,0,3.61-.8,8.83,8.83,0,0,0,2.9-2.18,10.54,10.54,0,0,0,2.64-7.08,7.41,7.41,0,0,0-.46-2.67,6.32,6.32,0,0,0-1.34-2.12,6.06,6.06,0,0,0-2.12-1.39,7.44,7.44,0,0,0-2.72-.48,8.38,8.38,0,0,0-3.68.79,8.86,8.86,0,0,0-2.84,2.16,9.7,9.7,0,0,0-1.82,3.2A11.81,11.81,0,0,0,519.75,202.68Z" transform="translate(-64 -27)" id="path99"/>
    <path d="M544.35,215.55a8.3,8.3,0,0,0,3.1,2.61,9.37,9.37,0,0,0,4.38,1,10,10,0,0,0,3.78-.64,7.28,7.28,0,0,0,2.64-1.76,8.59,8.59,0,0,0,1.67-2.6,15.67,15.67,0,0,0,.93-3.14l.74-3.92h-.08a9.78,9.78,0,0,1-3.44,3,9.37,9.37,0,0,1-4.4,1,10,10,0,0,1-3.8-.68,8.11,8.11,0,0,1-2.88-1.91,8.59,8.59,0,0,1-1.83-2.86,9.61,9.61,0,0,1-.64-3.57,12.26,12.26,0,0,1,.9-4.7,12.1,12.1,0,0,1,2.51-3.85,11.67,11.67,0,0,1,3.81-2.6,12,12,0,0,1,4.79-.95,9.14,9.14,0,0,1,2.2.27,7.79,7.79,0,0,1,2,.79,7.18,7.18,0,0,1,1.69,1.3,5.92,5.92,0,0,1,1.19,1.74h.09l.66-3.57h2.9l-3.6,20.42a29,29,0,0,1-.93,3.56,10.8,10.8,0,0,1-1.91,3.48,10.35,10.35,0,0,1-3.46,2.64,12.77,12.77,0,0,1-5.58,1,13.21,13.21,0,0,1-5.5-1.1,10,10,0,0,1-4-3Zm3.21-13.29a7.28,7.28,0,0,0,.44,2.51,6.27,6.27,0,0,0,1.27,2.09,5.7,5.7,0,0,0,2.07,1.4,7.31,7.31,0,0,0,2.82.51,8.53,8.53,0,0,0,3.63-.77,8.8,8.8,0,0,0,2.84-2.09,9.65,9.65,0,0,0,1.84-3.06,10.25,10.25,0,0,0,.66-3.67,7.15,7.15,0,0,0-.46-2.58,6.2,6.2,0,0,0-1.32-2.09,6.45,6.45,0,0,0-2.09-1.4,6.81,6.81,0,0,0-2.77-.53,9.14,9.14,0,0,0-3.63.7,8.17,8.17,0,0,0-2.82,2,9.12,9.12,0,0,0-1.82,3.06A11.43,11.43,0,0,0,547.56,202.26Z" transform="translate(-64 -27)" id="path101"/>
    <path d="M574.71,201.73c0,.18-.06.35-.07.51s0,.32,0,.46a6.89,6.89,0,0,0,.5,2.66,6.34,6.34,0,0,0,3.52,3.45,6.86,6.86,0,0,0,2.62.49,8.09,8.09,0,0,0,4.23-1.08,10,10,0,0,0,2.9-2.53l1.85,1.76a11.86,11.86,0,0,1-4.18,3.23,12.1,12.1,0,0,1-5.06,1.08,10.92,10.92,0,0,1-3.7-.61,8.83,8.83,0,0,1-3-1.76,8.33,8.33,0,0,1-2-2.84,9.75,9.75,0,0,1-.72-3.85,12.65,12.65,0,0,1,.92-4.8,12.91,12.91,0,0,1,2.53-4,12.34,12.34,0,0,1,3.78-2.75,10.83,10.83,0,0,1,4.69-1q4.23,0,6.4,2.25a8,8,0,0,1,2.18,5.81c0,.35,0,.88-.09,1.6a12,12,0,0,1-.31,2Zm14.38-2.2c0-.23.06-.49.07-.77s0-.53,0-.77a5.39,5.39,0,0,0-1.45-3.89,5.61,5.61,0,0,0-4.27-1.52,8,8,0,0,0-3,.55,8.11,8.11,0,0,0-2.47,1.52,9.55,9.55,0,0,0-1.82,2.22,8.87,8.87,0,0,0-1.06,2.66Z" transform="translate(-64 -27)" id="path103"/>
    <path d="M607.53,202.87a13.7,13.7,0,0,1,.9-5,12,12,0,0,1,6.38-6.77,11.42,11.42,0,0,1,4.82-1,8.93,8.93,0,0,1,4.2,1,6.66,6.66,0,0,1,3,3h.09L629.75,178h3l-5.9,33.26h-2.95l.62-3.38h-.09a8.68,8.68,0,0,1-3,2.75,9,9,0,0,1-4.54,1.16,10.63,10.63,0,0,1-3.8-.64,8.39,8.39,0,0,1-2.93-1.82,8,8,0,0,1-1.89-2.82A9.51,9.51,0,0,1,607.53,202.87Zm3.08-.19a7.75,7.75,0,0,0,.42,2.6,5.8,5.8,0,0,0,3.28,3.51,7,7,0,0,0,2.77.51,8.33,8.33,0,0,0,3.61-.8,8.83,8.83,0,0,0,2.9-2.18,10.54,10.54,0,0,0,2.64-7.08,7.41,7.41,0,0,0-.46-2.67,6.32,6.32,0,0,0-1.34-2.12,6.06,6.06,0,0,0-2.12-1.39,7.44,7.44,0,0,0-2.72-.48,8.38,8.38,0,0,0-3.68.79,8.86,8.86,0,0,0-2.84,2.16,9.7,9.7,0,0,0-1.82,3.2A11.81,11.81,0,0,0,610.61,202.68Z" transform="translate(-64 -27)" id="path105"/>
    <path d="M638,201.73c0,.18-.05.35-.07.51s0,.32,0,.46a6.71,6.71,0,0,0,.51,2.66,6.2,6.2,0,0,0,1.4,2.08,6.3,6.3,0,0,0,2.12,1.37,6.78,6.78,0,0,0,2.61.49,8.09,8.09,0,0,0,4.23-1.08,10,10,0,0,0,2.9-2.53l1.85,1.76a11.86,11.86,0,0,1-4.18,3.23,12.07,12.07,0,0,1-5.06,1.08,10.92,10.92,0,0,1-3.7-.61,8.83,8.83,0,0,1-3-1.76,8.33,8.33,0,0,1-2-2.84,9.75,9.75,0,0,1-.72-3.85,12.92,12.92,0,0,1,3.45-8.8,12.27,12.27,0,0,1,3.79-2.75,10.76,10.76,0,0,1,4.68-1q4.23,0,6.4,2.25a8,8,0,0,1,2.18,5.81c0,.35,0,.88-.09,1.6a13.26,13.26,0,0,1-.3,2Zm14.39-2.2c0-.23,0-.49.06-.77s0-.53,0-.77A5.39,5.39,0,0,0,651,194.1a5.61,5.61,0,0,0-4.27-1.52,8,8,0,0,0-5.47,2.07,9.35,9.35,0,0,0-1.83,2.22,8.87,8.87,0,0,0-1.06,2.66Z" transform="translate(-64 -27)" id="path107"/>
    <path d="M671.64,193.11h-5.59l-2.16,12.09a9.71,9.71,0,0,0-.13,1.41,2.21,2.21,0,0,0,.71,1.94,3.18,3.18,0,0,0,1.84.48,5.93,5.93,0,0,0,1.37-.18,2.88,2.88,0,0,0,1.14-.52l-.35,2.55a4.63,4.63,0,0,1-1.47.46,10.73,10.73,0,0,1-1.92.16,6.71,6.71,0,0,1-1.52-.18,3.64,3.64,0,0,1-1.4-.64,3.45,3.45,0,0,1-1.06-1.25,4.29,4.29,0,0,1-.42-2,9.71,9.71,0,0,1,.13-1.41l2.29-12.89h-4.27l.49-2.47h4.18l1-5.81h3l-1,5.81h5.67Z" transform="translate(-64 -27)" id="path109"/>
    <path d="M676.39,201.73c0,.18,0,.35-.07.51s0,.32,0,.46a6.71,6.71,0,0,0,.51,2.66,6.09,6.09,0,0,0,1.41,2.08,6.25,6.25,0,0,0,2.11,1.37,6.83,6.83,0,0,0,2.62.49,8.05,8.05,0,0,0,4.22-1.08,10,10,0,0,0,2.9-2.53l1.85,1.76a11.77,11.77,0,0,1-4.18,3.23,12.07,12.07,0,0,1-5.06,1.08,10.82,10.82,0,0,1-3.69-.61,8.64,8.64,0,0,1-3-1.76,8.06,8.06,0,0,1-2-2.84,9.58,9.58,0,0,1-.73-3.85,12.92,12.92,0,0,1,3.45-8.8,12.39,12.39,0,0,1,3.79-2.75,10.76,10.76,0,0,1,4.68-1q4.23,0,6.4,2.25a8,8,0,0,1,2.18,5.81c0,.35,0,.88-.08,1.6a13.21,13.21,0,0,1-.31,2Zm14.39-2.2c0-.23.05-.49.06-.77s0-.53,0-.77a5.39,5.39,0,0,0-1.46-3.89,5.59,5.59,0,0,0-4.26-1.52,8.07,8.07,0,0,0-3,.55,8.18,8.18,0,0,0-2.46,1.52,9.35,9.35,0,0,0-1.83,2.22,8.59,8.59,0,0,0-1.05,2.66Z" transform="translate(-64 -27)" id="path111"/>
    <path d="M715.5,195.31a4.28,4.28,0,0,0-1.82-2,5.77,5.77,0,0,0-3-.77,8.37,8.37,0,0,0-3.65.79,8.76,8.76,0,0,0-2.89,2.19,10.52,10.52,0,0,0-1.89,3.22,11.18,11.18,0,0,0-.68,3.9,7.76,7.76,0,0,0,.44,2.63,5.86,5.86,0,0,0,1.3,2.09,6.12,6.12,0,0,0,2.09,1.39,7.3,7.3,0,0,0,2.81.51,7.69,7.69,0,0,0,3.48-.75,8.93,8.93,0,0,0,2.6-1.94l1.89,1.63a12.57,12.57,0,0,1-3.57,2.57,10.57,10.57,0,0,1-4.61.95,11.52,11.52,0,0,1-4-.64,8.7,8.7,0,0,1-3-1.8,7.8,7.8,0,0,1-1.94-2.79,9.55,9.55,0,0,1-.67-3.61,13.66,13.66,0,0,1,.9-5,12.41,12.41,0,0,1,2.5-4.07,11.67,11.67,0,0,1,3.91-2.75,12.26,12.26,0,0,1,5.06-1,11,11,0,0,1,4.29.84,6,6,0,0,1,3,2.64Z" transform="translate(-64 -27)" id="path113"/>
    <path d="M732.05,193.11h-5.59L724.3,205.2a9.71,9.71,0,0,0-.13,1.41,2.21,2.21,0,0,0,.71,1.94,3.2,3.2,0,0,0,1.84.48,5.93,5.93,0,0,0,1.37-.18,2.88,2.88,0,0,0,1.14-.52l-.35,2.55a4.63,4.63,0,0,1-1.47.46,10.66,10.66,0,0,1-1.92.16,6.71,6.71,0,0,1-1.52-.18,3.64,3.64,0,0,1-1.4-.64,3.45,3.45,0,0,1-1.06-1.25,4.29,4.29,0,0,1-.42-2,9.71,9.71,0,0,1,.13-1.41l2.29-12.89h-4.27l.49-2.47h4.18l1-5.81h3l-1,5.81h5.67Z" transform="translate(-64 -27)" id="path115"/>
    <path d="M736.8,211.23h-2.95l3.65-20.59h3Zm5.41-28.55a2.08,2.08,0,0,1-.59,1.49,2,2,0,0,1-1.48.62,2.11,2.11,0,0,1-1.43-.53,1.85,1.85,0,0,1-.59-1.45,2.15,2.15,0,0,1,2.11-2.16,1.92,1.92,0,0,1,2,2Z" transform="translate(-64 -27)" id="path117"/>
    <path d="M754.22,211.76a10.79,10.79,0,0,1-3.82-.66,9.13,9.13,0,0,1-3-1.82,8.31,8.31,0,0,1-2-2.82,9.32,9.32,0,0,1-.7-3.63,13.42,13.42,0,0,1,.9-4.91,12.56,12.56,0,0,1,2.53-4,12,12,0,0,1,3.87-2.75,11.79,11.79,0,0,1,4.93-1,11.22,11.22,0,0,1,3.85.64,8.63,8.63,0,0,1,3,1.83,8.42,8.42,0,0,1,2,2.81,9,9,0,0,1,.71,3.61,13.46,13.46,0,0,1-.91,5A12,12,0,0,1,763,208a11.93,11.93,0,0,1-8.8,3.74Zm9.16-12.56a7.72,7.72,0,0,0-.44-2.63,5.69,5.69,0,0,0-1.3-2.09,5.94,5.94,0,0,0-2.08-1.39,7.16,7.16,0,0,0-2.77-.51,7.85,7.85,0,0,0-3.55.81,9,9,0,0,0-2.81,2.21,10.57,10.57,0,0,0-1.86,3.22,11.08,11.08,0,0,0-.68,3.86,7.52,7.52,0,0,0,.44,2.63,5.83,5.83,0,0,0,1.29,2.09,6.19,6.19,0,0,0,2.06,1.39,7,7,0,0,0,2.75.51,8,8,0,0,0,3.62-.82,9,9,0,0,0,2.83-2.18,10,10,0,0,0,1.84-3.2A11.41,11.41,0,0,0,763.38,199.2Z" transform="translate(-64 -27)" id="path119"/>
    <path d="M777.37,190.64c-.06.56-.13,1.18-.22,1.85s-.18,1.23-.27,1.67H777a8.81,8.81,0,0,1,3.07-3,7.87,7.87,0,0,1,4-1.08,7.52,7.52,0,0,1,5.23,1.7,5.89,5.89,0,0,1,1.88,4.6,7.41,7.41,0,0,1-.07,1.05c0,.35-.09.74-.15,1.15l-2.27,12.62h-3l2-11.39a14.22,14.22,0,0,0,.26-2.6,5.33,5.33,0,0,0-1-3.41,4.36,4.36,0,0,0-3.56-1.25,6.28,6.28,0,0,0-2.38.48,7,7,0,0,0-2.22,1.5,9.92,9.92,0,0,0-1.83,2.53,12,12,0,0,0-1.14,3.58L774,211.23h-3l2.82-16.06c.11-.55.24-1.27.37-2.15s.23-1.67.29-2.38Z" transform="translate(-64 -27)" id="path121"/>
    <path d="M819.3,193.11h-4.84l-3.17,18.12h-2.95l3.17-18.12h-4.35l.48-2.47h4.27l1-5.59a13.44,13.44,0,0,1,.83-2.92,8.08,8.08,0,0,1,1.52-2.42,7.1,7.1,0,0,1,2.27-1.65,7.2,7.2,0,0,1,3.08-.62,9.68,9.68,0,0,1,1.18.07,7,7,0,0,1,1.24.24l-.71,2.6a7.31,7.31,0,0,0-2.07-.27,3.85,3.85,0,0,0-1.82.4,3.45,3.45,0,0,0-1.28,1.12,6.65,6.65,0,0,0-.83,1.69,13.05,13.05,0,0,0-.51,2.07l-.92,5.28h4.92Z" transform="translate(-64 -27)" id="path123"/>
    <path d="M829.82,211.76a10.81,10.81,0,0,1-3.83-.66,9.13,9.13,0,0,1-3-1.82,8.28,8.28,0,0,1-2-2.82,9.15,9.15,0,0,1-.71-3.63,13.42,13.42,0,0,1,.9-4.91,12.73,12.73,0,0,1,2.53-4,12,12,0,0,1,3.88-2.75,11.71,11.71,0,0,1,4.92-1,11.18,11.18,0,0,1,3.85.64,8.77,8.77,0,0,1,3,1.83,8.4,8.4,0,0,1,2,2.81,9,9,0,0,1,.71,3.61,13.66,13.66,0,0,1-.9,5,12.35,12.35,0,0,1-2.53,4.05,12.05,12.05,0,0,1-3.88,2.73A11.86,11.86,0,0,1,829.82,211.76ZM839,199.2a7.72,7.72,0,0,0-.44-2.63,5.67,5.67,0,0,0-1.29-2.09,6,6,0,0,0-2.09-1.39,7.14,7.14,0,0,0-2.76-.51,7.89,7.89,0,0,0-3.56.81A9,9,0,0,0,826,195.6a10.78,10.78,0,0,0-1.86,3.22,11.08,11.08,0,0,0-.68,3.86,7.76,7.76,0,0,0,.44,2.63,5.83,5.83,0,0,0,1.29,2.09,6.13,6.13,0,0,0,2.07,1.39,6.94,6.94,0,0,0,2.74.51,8,8,0,0,0,3.62-.82,9,9,0,0,0,2.83-2.18,10,10,0,0,0,1.84-3.2A11.41,11.41,0,0,0,839,199.2Z" transform="translate(-64 -27)" id="path125"/>
    <path d="M849.81,193c.14-.88.23-1.67.29-2.38h2.82c-.06.56-.14,1.18-.22,1.85s-.18,1.23-.27,1.67h.09a9.29,9.29,0,0,1,2.9-2.92,7.23,7.23,0,0,1,4-1.13c.38,0,.72,0,1,0a6.68,6.68,0,0,1,.92.17l-.7,2.82a4.19,4.19,0,0,0-.82-.18,9.58,9.58,0,0,0-1.21-.08,6.3,6.3,0,0,0-2.33.44,6,6,0,0,0-2.09,1.38,9,9,0,0,0-1.67,2.42,12.72,12.72,0,0,0-1.08,3.54l-1.85,10.56h-3l2.82-16.06C849.56,194.62,849.68,193.9,849.81,193Z" transform="translate(-64 -27)" id="path127"/>
    <path d="M879.14,194a6.55,6.55,0,0,1,1.28-1.5,8.78,8.78,0,0,1,1.78-1.23,10.5,10.5,0,0,1,2.13-.84,9.36,9.36,0,0,1,2.38-.31,10.81,10.81,0,0,1,3.8.64,8.56,8.56,0,0,1,2.93,1.83,8.1,8.1,0,0,1,1.89,2.81A9.55,9.55,0,0,1,896,199a13.46,13.46,0,0,1-.92,5,12.69,12.69,0,0,1-2.53,4.05,11.84,11.84,0,0,1-3.83,2.73,11.56,11.56,0,0,1-4.82,1,9.07,9.07,0,0,1-4.2-1,6.66,6.66,0,0,1-3-3h-.09l-2.51,14h-2.94l5.54-31.15h2.95l-.62,3.35Zm13.77,5.21a7.76,7.76,0,0,0-.42-2.58,5.87,5.87,0,0,0-1.25-2.12,5.8,5.8,0,0,0-2-1.41,7,7,0,0,0-2.78-.51,8.24,8.24,0,0,0-3.6.79,8.94,8.94,0,0,0-2.91,2.19,10.23,10.23,0,0,0-1.93,3.22,10.62,10.62,0,0,0-.71,3.86,7.63,7.63,0,0,0,.46,2.67,6.15,6.15,0,0,0,1.35,2.11,5.76,5.76,0,0,0,2.09,1.39,7.18,7.18,0,0,0,2.75.49,8.37,8.37,0,0,0,3.67-.8,8.61,8.61,0,0,0,2.84-2.16,9.6,9.6,0,0,0,1.82-3.2A11.75,11.75,0,0,0,892.91,199.2Z" transform="translate(-64 -27)" id="path129"/>
    <path d="M903.76,193c.13-.88.22-1.67.28-2.38h2.82c-.06.56-.13,1.18-.22,1.85s-.18,1.23-.26,1.67h.08a9.32,9.32,0,0,1,2.91-2.92,7.18,7.18,0,0,1,4-1.13,9.87,9.87,0,0,1,1,0,6.68,6.68,0,0,1,.92.17l-.7,2.82a4.22,4.22,0,0,0-.81-.18,9.71,9.71,0,0,0-1.21-.08,6.35,6.35,0,0,0-2.34.44,6,6,0,0,0-2.09,1.38,9.21,9.21,0,0,0-1.67,2.42,13.43,13.43,0,0,0-1.08,3.54l-1.84,10.56h-2.95l2.81-16.06C903.5,194.62,903.62,193.9,903.76,193Z" transform="translate(-64 -27)" id="path131"/>
    <path d="M924.77,211.76a10.81,10.81,0,0,1-3.83-.66,9.13,9.13,0,0,1-3-1.82,8.28,8.28,0,0,1-1.95-2.82,9.15,9.15,0,0,1-.71-3.63,13.22,13.22,0,0,1,.91-4.91,12.53,12.53,0,0,1,2.52-4,12,12,0,0,1,3.88-2.75,11.74,11.74,0,0,1,4.92-1,11.18,11.18,0,0,1,3.85.64,8.77,8.77,0,0,1,3,1.83,8.4,8.4,0,0,1,1.95,2.81A9,9,0,0,1,937,199a13.66,13.66,0,0,1-.9,5,12.19,12.19,0,0,1-2.53,4.05,12.05,12.05,0,0,1-3.88,2.73A11.86,11.86,0,0,1,924.77,211.76Zm9.15-12.56a7.72,7.72,0,0,0-.44-2.63,5.67,5.67,0,0,0-1.29-2.09,6,6,0,0,0-2.09-1.39,7.14,7.14,0,0,0-2.76-.51,7.89,7.89,0,0,0-3.56.81A9,9,0,0,0,921,195.6a10.78,10.78,0,0,0-1.86,3.22,11.08,11.08,0,0,0-.68,3.86,7.76,7.76,0,0,0,.44,2.63,5.83,5.83,0,0,0,1.29,2.09,6.13,6.13,0,0,0,2.07,1.39,6.94,6.94,0,0,0,2.74.51,8,8,0,0,0,3.62-.82,9,9,0,0,0,2.83-2.18,10,10,0,0,0,1.84-3.2A11.41,11.41,0,0,0,933.92,199.2Z" transform="translate(-64 -27)" id="path133"/>
    <path d="M953.32,193.11h-5.59l-2.15,12.09a8.48,8.48,0,0,0-.13,1.41,2.21,2.21,0,0,0,.7,1.94A3.24,3.24,0,0,0,948,209a5.86,5.86,0,0,0,1.36-.18,3,3,0,0,0,1.15-.52l-.36,2.55a4.63,4.63,0,0,1-1.47.46,10.62,10.62,0,0,1-1.91.16,6.64,6.64,0,0,1-1.52-.18,3.62,3.62,0,0,1-1.41-.64,3.55,3.55,0,0,1-1.06-1.25,4.3,4.3,0,0,1-.41-2,8.48,8.48,0,0,1,.13-1.41l2.29-12.89h-4.27l.48-2.47h4.18l1-5.81h2.95l-1,5.81h5.68Z" transform="translate(-64 -27)" id="path135"/>
    <path d="M958.07,201.73a5,5,0,0,0-.06.51,3.7,3.7,0,0,0,0,.46,6.71,6.71,0,0,0,.5,2.66,6.34,6.34,0,0,0,3.52,3.45,6.86,6.86,0,0,0,2.62.49,8.05,8.05,0,0,0,4.22-1.08,10.05,10.05,0,0,0,2.91-2.53l1.85,1.76a12,12,0,0,1-4.18,3.23,12.1,12.1,0,0,1-5.06,1.08,10.88,10.88,0,0,1-3.7-.61,8.83,8.83,0,0,1-3-1.76,8.06,8.06,0,0,1-2-2.84,9.75,9.75,0,0,1-.73-3.85,13,13,0,0,1,3.46-8.8,12.34,12.34,0,0,1,3.78-2.75,10.8,10.8,0,0,1,4.69-1c2.81,0,5,.75,6.4,2.25a8,8,0,0,1,2.18,5.81c0,.35,0,.88-.09,1.6a12,12,0,0,1-.31,2Zm14.39-2.2c0-.23,0-.49.07-.77s0-.53,0-.77a5.39,5.39,0,0,0-1.45-3.89,5.61,5.61,0,0,0-4.27-1.52,8,8,0,0,0-3,.55,8.11,8.11,0,0,0-2.47,1.52,9.07,9.07,0,0,0-1.82,2.22,8.62,8.62,0,0,0-1.06,2.66Z" transform="translate(-64 -27)" id="path137"/>
    <path d="M983,211.23h-3l3.65-20.59h3Zm5.41-28.55a2.08,2.08,0,0,1-.59,1.49,2,2,0,0,1-1.48.62,2.09,2.09,0,0,1-1.43-.53,1.85,1.85,0,0,1-.59-1.45,2.15,2.15,0,0,1,2.11-2.16,1.92,1.92,0,0,1,2,2Z" transform="translate(-64 -27)" id="path139"/>
    <path d="M997.32,190.64c-.06.56-.13,1.18-.22,1.85s-.17,1.23-.26,1.67h.09a8.7,8.7,0,0,1,3.06-3,7.9,7.9,0,0,1,4-1.08,7.53,7.53,0,0,1,5.23,1.7,5.88,5.88,0,0,1,1.87,4.6,9.24,9.24,0,0,1-.06,1.05c0,.35-.1.74-.16,1.15l-2.27,12.62h-3l2-11.39a13.44,13.44,0,0,0,.27-2.6,5.27,5.27,0,0,0-1-3.41,4.36,4.36,0,0,0-3.56-1.25,6.36,6.36,0,0,0-2.38.48,7,7,0,0,0-2.22,1.5,9.67,9.67,0,0,0-1.82,2.53,12.24,12.24,0,0,0-1.15,3.58l-1.85,10.56H991l2.81-16.06c.12-.55.24-1.27.38-2.15s.22-1.67.28-2.38Z" transform="translate(-64 -27)" id="path141"/>
    <path d="M1041.37,195.17a4.88,4.88,0,0,0-1.85-1.87,5.76,5.76,0,0,0-3-.72,8.72,8.72,0,0,0-1.65.17,5.53,5.53,0,0,0-1.58.58,3.5,3.5,0,0,0-1.19,1,2.59,2.59,0,0,0-.46,1.56,2.9,2.9,0,0,0,.28,1.37,2.59,2.59,0,0,0,.82.9,5.58,5.58,0,0,0,1.27.66c.5.19,1.07.37,1.72.55a12.75,12.75,0,0,1,4.62,2.22,4.74,4.74,0,0,1,1.58,3.81,5.37,5.37,0,0,1-.75,2.88,6.28,6.28,0,0,1-1.89,2,7.93,7.93,0,0,1-2.55,1.12,11.13,11.13,0,0,1-2.77.35,12.5,12.5,0,0,1-4.86-.95,7.58,7.58,0,0,1-3.55-2.92l2.56-1.67a6.18,6.18,0,0,0,2.24,2.18,6.63,6.63,0,0,0,3.48.9,9.19,9.19,0,0,0,1.89-.2,5.7,5.7,0,0,0,1.65-.62,3.31,3.31,0,0,0,1.16-1.1,2.86,2.86,0,0,0,.44-1.61,2.8,2.8,0,0,0-1.29-2.49,16.19,16.19,0,0,0-3.72-1.66c-.62-.2-1.23-.44-1.85-.7a6.25,6.25,0,0,1-1.67-1,5,5,0,0,1-1.21-1.54,4.71,4.71,0,0,1-.46-2.18,5.07,5.07,0,0,1,.72-2.74,6.11,6.11,0,0,1,1.85-1.87,8.1,8.1,0,0,1,2.53-1.08,11.36,11.36,0,0,1,2.82-.36,9.37,9.37,0,0,1,4.24.93,6,6,0,0,1,2.71,2.46Z" transform="translate(-64 -27)" id="path143"/>
    <path d="M1049.9,201.73c0,.18-.05.35-.07.51s0,.32,0,.46a6.71,6.71,0,0,0,.51,2.66,6.38,6.38,0,0,0,1.41,2.08,6.25,6.25,0,0,0,2.11,1.37,6.86,6.86,0,0,0,2.62.49,8.05,8.05,0,0,0,4.22-1.08,10,10,0,0,0,2.9-2.53l1.85,1.76a11.77,11.77,0,0,1-4.18,3.23,12.07,12.07,0,0,1-5.06,1.08,10.82,10.82,0,0,1-3.69-.61,8.64,8.64,0,0,1-3-1.76,8.06,8.06,0,0,1-2-2.84,9.58,9.58,0,0,1-.73-3.85,13,13,0,0,1,3.46-8.8,12.34,12.34,0,0,1,3.78-2.75,10.77,10.77,0,0,1,4.69-1c2.81,0,5,.75,6.4,2.25a8,8,0,0,1,2.18,5.81c0,.35,0,.88-.09,1.6a12,12,0,0,1-.31,2Zm14.39-2.2c0-.23,0-.49.07-.77s0-.53,0-.77a5.39,5.39,0,0,0-1.46-3.89,5.59,5.59,0,0,0-4.26-1.52,8.07,8.07,0,0,0-3,.55,8.18,8.18,0,0,0-2.46,1.52,9.35,9.35,0,0,0-1.83,2.22,8.59,8.59,0,0,0-1,2.66Z" transform="translate(-64 -27)" id="path145"/>
    <path d="M1071.72,202.87a13.7,13.7,0,0,1,.91-5,12,12,0,0,1,6.38-6.77,11.37,11.37,0,0,1,4.81-1,9,9,0,0,1,4.21,1,6.76,6.76,0,0,1,3,3h.08l.62-3.48h3l-5.5,31.15h-3l2.46-13.9h-.08a6.81,6.81,0,0,1-1.28,1.5,9.07,9.07,0,0,1-1.78,1.23,9.81,9.81,0,0,1-2.14.83,8.86,8.86,0,0,1-2.37.31,10.65,10.65,0,0,1-3.81-.64,8.34,8.34,0,0,1-2.92-1.82,8.07,8.07,0,0,1-1.9-2.82A9.51,9.51,0,0,1,1071.72,202.87Zm3.08-.19a7.75,7.75,0,0,0,.42,2.6,5.88,5.88,0,0,0,3.28,3.51,7,7,0,0,0,2.77.51,8.29,8.29,0,0,0,3.61-.8,8.73,8.73,0,0,0,2.9-2.18,10.39,10.39,0,0,0,1.94-3.2,10.57,10.57,0,0,0,.7-3.88,7.41,7.41,0,0,0-.46-2.67,6,6,0,0,0-3.45-3.51,7.45,7.45,0,0,0-2.73-.48,8.33,8.33,0,0,0-3.67.79,8.75,8.75,0,0,0-2.84,2.16,9.9,9.9,0,0,0-1.83,3.2A12.07,12.07,0,0,0,1074.8,202.68Z" transform="translate(-64 -27)" id="path147"/>
    <path d="M1113.52,211.23c.06-.55.14-1.17.23-1.84s.17-1.24.26-1.68h-.09a8.53,8.53,0,0,1-3.06,3,7.81,7.81,0,0,1-4,1.08,7.5,7.5,0,0,1-5.21-1.67,5.81,5.81,0,0,1-1.87-4.58,9.24,9.24,0,0,1,.06-1c.05-.35.1-.73.16-1.15l2.27-12.62h3l-2,11.39a13.93,13.93,0,0,0-.27,2.6,5.21,5.21,0,0,0,1,3.39,4.4,4.4,0,0,0,3.56,1.23,6.09,6.09,0,0,0,2.36-.49,7,7,0,0,0,2.22-1.47,9.84,9.84,0,0,0,1.82-2.51,12.15,12.15,0,0,0,1.14-3.58l1.84-10.56h2.95L1117,206.75c-.11.55-.24,1.27-.37,2.14s-.23,1.66-.29,2.34Z" transform="translate(-64 -27)" id="path149"/>
    <path d="M1127.47,201.73a5,5,0,0,0-.06.51,3.8,3.8,0,0,0,0,.46,6.71,6.71,0,0,0,.51,2.66,6.38,6.38,0,0,0,1.41,2.08,6.25,6.25,0,0,0,2.11,1.37,6.86,6.86,0,0,0,2.62.49,8.05,8.05,0,0,0,4.22-1.08,10.05,10.05,0,0,0,2.91-2.53l1.84,1.76a11.77,11.77,0,0,1-4.18,3.23,12.07,12.07,0,0,1-5.06,1.08,10.82,10.82,0,0,1-3.69-.61,8.64,8.64,0,0,1-3-1.76,8.06,8.06,0,0,1-2-2.84,9.58,9.58,0,0,1-.73-3.85,13,13,0,0,1,3.46-8.8,12.34,12.34,0,0,1,3.78-2.75,10.77,10.77,0,0,1,4.69-1c2.81,0,5,.75,6.4,2.25a8,8,0,0,1,2.18,5.81c0,.35,0,.88-.09,1.6a12,12,0,0,1-.31,2Zm14.39-2.2c0-.23.05-.49.07-.77s0-.53,0-.77a5.43,5.43,0,0,0-1.45-3.89,5.61,5.61,0,0,0-4.27-1.52,8.07,8.07,0,0,0-3,.55,8.18,8.18,0,0,0-2.46,1.52,9.35,9.35,0,0,0-1.83,2.22,8.85,8.85,0,0,0-1.05,2.66Z" transform="translate(-64 -27)" id="path151"/>
    <path d="M1155.72,190.64c-.06.56-.13,1.18-.22,1.85s-.17,1.23-.26,1.67h.09a8.7,8.7,0,0,1,3.06-3,7.88,7.88,0,0,1,4-1.08,7.53,7.53,0,0,1,5.23,1.7,5.88,5.88,0,0,1,1.87,4.6,9.24,9.24,0,0,1-.06,1.05c0,.35-.1.74-.16,1.15L1167,211.23h-3l2-11.39a13.44,13.44,0,0,0,.27-2.6,5.27,5.27,0,0,0-1-3.41,4.36,4.36,0,0,0-3.56-1.25,6.36,6.36,0,0,0-2.38.48,7,7,0,0,0-2.22,1.5,9.67,9.67,0,0,0-1.82,2.53,12.24,12.24,0,0,0-1.15,3.58l-1.85,10.56h-2.95l2.82-16.06c.12-.55.24-1.27.38-2.15s.22-1.67.28-2.38Z" transform="translate(-64 -27)" id="path153"/>
    <path d="M1192,195.31a4.3,4.3,0,0,0-1.83-2,5.74,5.74,0,0,0-3-.77,8.37,8.37,0,0,0-3.65.79,8.62,8.62,0,0,0-2.88,2.19,10.35,10.35,0,0,0-1.9,3.22,11.18,11.18,0,0,0-.68,3.9,7.76,7.76,0,0,0,.44,2.63,6,6,0,0,0,1.3,2.09,6.12,6.12,0,0,0,2.09,1.39,7.31,7.31,0,0,0,2.82.51,7.61,7.61,0,0,0,3.47-.75,8.93,8.93,0,0,0,2.6-1.94l1.89,1.63a12.52,12.52,0,0,1-3.56,2.57,10.62,10.62,0,0,1-4.62.95,11.42,11.42,0,0,1-4-.64,8.66,8.66,0,0,1-3-1.8,7.92,7.92,0,0,1-1.94-2.79,9.55,9.55,0,0,1-.67-3.61,13.66,13.66,0,0,1,.9-5,12.41,12.41,0,0,1,2.5-4.07,11.67,11.67,0,0,1,3.91-2.75,12.26,12.26,0,0,1,5.06-1,11,11,0,0,1,4.29.84,6,6,0,0,1,3,2.64Z" transform="translate(-64 -27)" id="path155"/>
    <path d="M1199.76,201.73c0,.18,0,.35-.06.51a3.7,3.7,0,0,0,0,.46,6.71,6.71,0,0,0,.5,2.66,6.34,6.34,0,0,0,3.52,3.45,6.86,6.86,0,0,0,2.62.49,8.05,8.05,0,0,0,4.22-1.08,10.05,10.05,0,0,0,2.91-2.53l1.85,1.76a12,12,0,0,1-4.18,3.23,12.1,12.1,0,0,1-5.06,1.08,10.88,10.88,0,0,1-3.7-.61,8.83,8.83,0,0,1-3-1.76,8.06,8.06,0,0,1-2-2.84,9.75,9.75,0,0,1-.73-3.85,13,13,0,0,1,3.46-8.8,12.34,12.34,0,0,1,3.78-2.75,10.8,10.8,0,0,1,4.69-1c2.81,0,5,.75,6.4,2.25a8,8,0,0,1,2.18,5.81c0,.35,0,.88-.09,1.6a12,12,0,0,1-.31,2Zm14.39-2.2c0-.23,0-.49.07-.77s0-.53,0-.77a5.39,5.39,0,0,0-1.45-3.89,5.61,5.61,0,0,0-4.27-1.52,8,8,0,0,0-3,.55,8.11,8.11,0,0,0-2.47,1.52,9.07,9.07,0,0,0-1.82,2.22,8.87,8.87,0,0,0-1.06,2.66Z" transform="translate(-64 -27)" id="path157"/>
    <path d="M1235.67,195.17a4.88,4.88,0,0,0-1.85-1.87,5.73,5.73,0,0,0-3-.72,8.72,8.72,0,0,0-1.65.17,5.53,5.53,0,0,0-1.58.58,3.5,3.5,0,0,0-1.19,1,2.59,2.59,0,0,0-.46,1.56,2.9,2.9,0,0,0,.28,1.37,2.7,2.7,0,0,0,.82.9,5.58,5.58,0,0,0,1.27.66c.5.19,1.07.37,1.72.55a12.75,12.75,0,0,1,4.62,2.22,4.7,4.7,0,0,1,1.58,3.81,5.46,5.46,0,0,1-.74,2.88,6.31,6.31,0,0,1-1.9,2,7.93,7.93,0,0,1-2.55,1.12,11.13,11.13,0,0,1-2.77.35,12.5,12.5,0,0,1-4.86-.95,7.61,7.61,0,0,1-3.54-2.92l2.55-1.67a6.26,6.26,0,0,0,2.24,2.18,6.63,6.63,0,0,0,3.48.9,9.19,9.19,0,0,0,1.89-.2,5.49,5.49,0,0,0,1.65-.62,3.43,3.43,0,0,0,1.17-1.1,2.94,2.94,0,0,0,.44-1.61,2.81,2.81,0,0,0-1.3-2.49,16.19,16.19,0,0,0-3.72-1.66c-.62-.2-1.23-.44-1.85-.7a6.41,6.41,0,0,1-1.67-1,5,5,0,0,1-1.21-1.54,4.71,4.71,0,0,1-.46-2.18,5.07,5.07,0,0,1,.72-2.74,6.11,6.11,0,0,1,1.85-1.87,8.1,8.1,0,0,1,2.53-1.08,11.36,11.36,0,0,1,2.82-.36,9.37,9.37,0,0,1,4.24.93,6,6,0,0,1,2.71,2.46Z" transform="translate(-64 -27)" id="path159"/>
  </g>
  <g id="Layer_2" data-name="Layer 2">
    <path class="cls-3" d="M539.62,152.17a33.25,33.25,0,0,1-27.2-13.33v10.74h-16V43.5h17V91.65A33.14,33.14,0,0,1,539.62,79c19.45,0,34,16.73,34,36.72C573.62,136.12,559.07,152.17,539.62,152.17Zm-5-14.83a21.47,21.47,0,0,0,21.35-21.76c0-11.83-9.11-21.76-21.35-21.76a21.76,21.76,0,0,0,0,43.52Z" transform="translate(-64 -27)" id="path162"/>
    <path class="cls-3" d="M604.5,149.58H587.63V43.5H604.5Z" transform="translate(-64 -27)" id="path164"/>
    <path class="cls-3" d="M697,115.58c0,20.68-16.73,37.27-39.44,37.27s-39.44-16.59-39.44-37.27S635,78.32,657.54,78.32,697,94.91,697,115.58Zm-61.07,0c0,12.52,9.11,22.72,21.63,22.72S679.3,128,679.3,115.58s-9.25-22.71-21.76-22.71S635.91,103.21,635.91,115.58Z" transform="translate(-64 -27)" id="path166"/>
    <path class="cls-3" d="M753.56,152.17a33.25,33.25,0,0,1-27.2-13.33v10.74H710.31V43.5h17V91.65A33.12,33.12,0,0,1,753.56,79c19.44,0,34,16.73,34,36.72C787.56,136.12,773,152.17,753.56,152.17Zm-5-14.83a21.48,21.48,0,0,0,21.36-21.76c0-11.83-9.12-21.76-21.36-21.76a21.76,21.76,0,0,0,0,43.52Z" transform="translate(-64 -27)" id="path168"/>
    <path class="cls-3" d="M847.67,141a29.06,29.06,0,0,1-22.3,10.33c-14.28,0-24.48-9.65-24.48-25.43V81.58h17v39.31c0,11.42,6.53,15.37,14.28,15.37,6.66,0,14.82-5,14.82-14.15V81.58h16.73v68H847.67Z" transform="translate(-64 -27)" id="path170"/>
    <path class="cls-3" d="M897.18,149.58H880.31V43.5h16.87Z" transform="translate(-64 -27)" id="path172"/>
    <path class="cls-3" d="M955.12,142.92A26.66,26.66,0,0,1,934.58,152c-14,0-23.8-9.38-23.8-22.17,0-12.51,9.79-22.44,25.16-22.44,7.75,0,13.87,2.31,18.09,5.58v-3.81c0-11.83-6-15.64-16-15.64-4.35,0-8.57.54-16.86,2.18l-.55-13.88a95.3,95.3,0,0,1,20.54-2.17c20,0,29.78,10.06,29.78,25.43v44.47H955.12Zm-1-13.46c0-6.53-5.3-11.84-13-11.84s-12.92,5.31-12.92,11.84,5,12.37,12.92,12.37C948.59,141.83,954.16,136.26,954.16,129.46Z" transform="translate(-64 -27)" id="path174"/>
    <path class="cls-3" d="M1008.7,95.73v53.85H991.84V95.73H983.4V81.58h8.44V60l16.86-5V81.58h8.43V95.73Z" transform="translate(-64 -27)" id="path176"/>
    <path class="cls-3" d="M1104.72,115.58c0,20.68-16.73,37.27-39.44,37.27s-39.44-16.59-39.44-37.27,16.86-37.26,39.44-37.26S1104.72,94.91,1104.72,115.58Zm-61.07,0c0,12.52,9.12,22.72,21.63,22.72S1087,128,1087,115.58s-9.25-22.71-21.76-22.71S1043.65,103.21,1043.65,115.58Z" transform="translate(-64 -27)" id="path178"/>
    <path class="cls-3" d="M1135.05,149.58h-17v-68h16.18V96c2.45-5.31,9.52-14.69,19.45-14.69H1156v18.9a8.79,8.79,0,0,0-3.26-.54c-10.88,0-17.68,8.43-17.68,14.28Z" transform="translate(-64 -27)" id="path180"/>
    <path d="M1169,60.36h-7.38V57.7h18v2.66h-7.41V82H1169Z" transform="translate(-64 -27)" id="path182"/>
    <path d="M1202.76,71.3c-.18-3.38-.4-7.45-.36-10.47h-.11c-.83,2.84-1.84,5.87-3.06,9.21L1195,81.81h-2.38l-3.92-11.55c-1.15-3.42-2.13-6.55-2.81-9.43h-.07c-.07,3-.25,7.09-.47,10.73l-.65,10.4h-3l1.69-24.26h4l4.14,11.73c1,3,1.84,5.65,2.45,8.17h.11c.61-2.45,1.47-5.11,2.55-8.17l4.32-11.73h4L1206.43,82h-3.06Z" transform="translate(-64 -27)" id="path184"/>
  </g>
</svg>